<svg width="158" height="116" viewBox="0 0 158 116" fill="none" xmlns="http://www.w3.org/2000/svg">
<path d="M57.864 48.432C56.776 48.432 55.944 48.128 55.368 47.52C54.792 46.912 54.504 46.064 54.504 44.976V17.184C54.504 16.096 54.808 15.248 55.416 14.64C56.056 14.032 56.92 13.728 58.008 13.728C58.968 13.728 59.72 13.92 60.264 14.304C60.84 14.656 61.368 15.28 61.848 16.176L72.936 36.432H71.304L82.392 16.176C82.872 15.28 83.384 14.656 83.928 14.304C84.504 13.92 85.256 13.728 86.184 13.728C87.272 13.728 88.104 14.032 88.68 14.64C89.288 15.248 89.592 16.096 89.592 17.184V44.976C89.592 46.064 89.304 46.912 88.728 47.52C88.152 48.128 87.32 48.432 86.232 48.432C85.144 48.432 84.296 48.128 83.688 47.52C83.112 46.912 82.824 46.064 82.824 44.976V25.536H83.88L74.952 41.52C74.568 42.128 74.152 42.592 73.704 42.912C73.288 43.2 72.728 43.344 72.024 43.344C71.32 43.344 70.744 43.184 70.296 42.864C69.848 42.544 69.448 42.096 69.096 41.52L60.072 25.488H61.224V44.976C61.224 46.064 60.936 46.912 60.36 47.52C59.816 48.128 58.984 48.432 57.864 48.432ZM100.343 48C99.0949 48 98.1349 47.664 97.4629 46.992C96.7909 46.32 96.4549 45.36 96.4549 44.112V18.048C96.4549 16.8 96.7909 15.84 97.4629 15.168C98.1349 14.496 99.0949 14.16 100.343 14.16H117.095C118.055 14.16 118.775 14.416 119.255 14.928C119.767 15.408 120.023 16.112 120.023 17.04C120.023 18 119.767 18.736 119.255 19.248C118.775 19.728 118.055 19.968 117.095 19.968H103.559V27.888H115.991C116.983 27.888 117.719 28.144 118.199 28.656C118.711 29.136 118.967 29.856 118.967 30.816C118.967 31.776 118.711 32.512 118.199 33.024C117.719 33.504 116.983 33.744 115.991 33.744H103.559V42.192H117.095C118.055 42.192 118.775 42.448 119.255 42.96C119.767 43.44 120.023 44.144 120.023 45.072C120.023 46.032 119.767 46.768 119.255 47.28C118.775 47.76 118.055 48 117.095 48H100.343ZM140.013 48.528C137.613 48.528 135.485 48.224 133.629 47.616C131.805 46.976 130.269 46.048 129.021 44.832C127.773 43.616 126.829 42.096 126.189 40.272C125.581 38.416 125.277 36.272 125.277 33.84V17.52C125.277 16.272 125.597 15.328 126.237 14.688C126.877 14.048 127.805 13.728 129.021 13.728C130.205 13.728 131.117 14.048 131.757 14.688C132.397 15.328 132.717 16.272 132.717 17.52V33.888C132.717 36.64 133.341 38.72 134.589 40.128C135.837 41.504 137.645 42.192 140.013 42.192C142.381 42.192 144.173 41.504 145.389 40.128C146.637 38.72 147.261 36.64 147.261 33.888V17.52C147.261 16.272 147.581 15.328 148.221 14.688C148.861 14.048 149.773 13.728 150.957 13.728C152.141 13.728 153.037 14.048 153.645 14.688C154.285 15.328 154.605 16.272 154.605 17.52V33.84C154.605 37.072 154.045 39.792 152.925 42C151.837 44.176 150.205 45.808 148.029 46.896C145.885 47.984 143.213 48.528 140.013 48.528Z" fill="#0D6EFD"/>
<circle cx="28.1072" cy="48.5" r="24.2857" fill="#0D6EFD"/>
<circle cx="28.1072" cy="48.5" r="15.1786" fill="white"/>
<circle cx="28.1072" cy="18.1429" r="14.6429" fill="#0D6EFD" stroke="white" stroke-width="5"/>
<rect x="3.21429" y="48.5" width="49.7857" height="25.5" fill="white"/>
<path d="M7.152 99.432C5.936 99.432 5.008 99.096 4.368 98.424C3.728 97.752 3.408 96.808 3.408 95.592V68.952C3.408 67.704 3.728 66.76 4.368 66.12C5.04 65.48 5.984 65.16 7.2 65.16H18.864C22.64 65.16 25.552 66.072 27.6 67.896C29.648 69.72 30.672 72.264 30.672 75.528C30.672 77.64 30.208 79.464 29.28 81C28.352 82.536 27.008 83.72 25.248 84.552C23.52 85.384 21.392 85.8 18.864 85.8L19.248 84.984H21.216C22.56 84.984 23.728 85.32 24.72 85.992C25.744 86.632 26.624 87.624 27.36 88.968L30.336 94.488C30.784 95.288 30.992 96.072 30.96 96.84C30.928 97.608 30.64 98.232 30.096 98.712C29.552 99.192 28.752 99.432 27.696 99.432C26.64 99.432 25.776 99.208 25.104 98.76C24.464 98.312 23.888 97.624 23.376 96.696L18.768 88.2C18.288 87.304 17.696 86.696 16.992 86.376C16.32 86.056 15.488 85.896 14.496 85.896H10.848V95.592C10.848 96.808 10.528 97.752 9.888 98.424C9.28 99.096 8.368 99.432 7.152 99.432ZM10.848 80.52H17.52C19.504 80.52 20.992 80.12 21.984 79.32C23.008 78.52 23.52 77.32 23.52 75.72C23.52 74.152 23.008 72.968 21.984 72.168C20.992 71.368 19.504 70.968 17.52 70.968H10.848V80.52ZM40.5739 99.432C39.3579 99.432 38.4299 99.096 37.7899 98.424C37.1499 97.752 36.8299 96.808 36.8299 95.592V68.568C36.8299 67.352 37.1499 66.408 37.7899 65.736C38.4299 65.064 39.3579 64.728 40.5739 64.728C41.7579 64.728 42.6699 65.064 43.3099 65.736C43.9499 66.408 44.2699 67.352 44.2699 68.568V78.744H60.0139V68.568C60.0139 67.352 60.3339 66.408 60.9739 65.736C61.6139 65.064 62.5259 64.728 63.7099 64.728C64.9259 64.728 65.8539 65.064 66.4939 65.736C67.1339 66.408 67.4539 67.352 67.4539 68.568V95.592C67.4539 96.808 67.1339 97.752 66.4939 98.424C65.8539 99.096 64.9259 99.432 63.7099 99.432C62.5259 99.432 61.6139 99.096 60.9739 98.424C60.3339 97.752 60.0139 96.808 60.0139 95.592V84.936H44.2699V95.592C44.2699 96.808 43.9499 97.752 43.3099 98.424C42.7019 99.096 41.7899 99.432 40.5739 99.432ZM84.459 99.528C82.763 99.528 81.035 99.336 79.275 98.952C77.547 98.536 76.043 97.96 74.763 97.224C73.931 96.776 73.355 96.248 73.035 95.64C72.747 95 72.635 94.376 72.699 93.768C72.795 93.16 73.051 92.632 73.467 92.184C73.883 91.704 74.411 91.4 75.051 91.272C75.723 91.144 76.459 91.272 77.259 91.656C78.507 92.264 79.691 92.696 80.811 92.952C81.931 93.208 83.051 93.336 84.171 93.336C85.451 93.336 86.523 93.176 87.387 92.856C88.251 92.504 88.907 92.008 89.355 91.368C89.803 90.728 90.027 89.928 90.027 88.968C90.027 87.624 89.563 86.616 88.635 85.944C87.707 85.272 86.347 84.936 84.555 84.936H81.723C80.667 84.936 79.851 84.68 79.275 84.168C78.731 83.624 78.459 82.888 78.459 81.96C78.459 81 78.731 80.264 79.275 79.752C79.851 79.208 80.667 78.936 81.723 78.936H83.835C84.923 78.936 85.835 78.776 86.571 78.456C87.339 78.104 87.931 77.624 88.347 77.016C88.795 76.408 89.019 75.656 89.019 74.76C89.019 73.48 88.571 72.504 87.675 71.832C86.811 71.16 85.547 70.824 83.883 70.824C82.859 70.824 81.851 70.952 80.859 71.208C79.867 71.432 78.795 71.848 77.643 72.456C76.939 72.808 76.283 72.92 75.675 72.792C75.067 72.664 74.555 72.376 74.139 71.928C73.755 71.48 73.499 70.968 73.371 70.392C73.275 69.784 73.355 69.176 73.611 68.568C73.899 67.96 74.411 67.464 75.147 67.08C76.523 66.28 78.011 65.672 79.611 65.256C81.243 64.84 82.891 64.632 84.555 64.632C86.987 64.632 89.067 65 90.795 65.736C92.523 66.472 93.851 67.528 94.779 68.904C95.707 70.248 96.171 71.88 96.171 73.8C96.171 75.112 95.915 76.312 95.403 77.4C94.891 78.488 94.171 79.416 93.243 80.184C92.347 80.92 91.243 81.448 89.931 81.768V81.144C92.203 81.528 93.979 82.472 95.259 83.976C96.539 85.48 97.179 87.368 97.179 89.64C97.179 91.656 96.667 93.416 95.643 94.92C94.619 96.392 93.147 97.528 91.227 98.328C89.339 99.128 87.083 99.528 84.459 99.528ZM115.352 99.528C112.472 99.528 110.024 98.856 108.008 97.512C105.992 96.168 104.456 94.232 103.4 91.704C102.344 89.176 101.816 86.12 101.816 82.536C101.816 79.688 102.152 77.16 102.824 74.952C103.528 72.744 104.52 70.872 105.8 69.336C107.08 67.8 108.648 66.632 110.504 65.832C112.392 65.032 114.504 64.632 116.84 64.632C118.216 64.632 119.608 64.824 121.016 65.208C122.424 65.592 123.736 66.168 124.952 66.936C125.592 67.256 126.024 67.72 126.248 68.328C126.504 68.904 126.584 69.496 126.488 70.104C126.392 70.712 126.152 71.256 125.768 71.736C125.384 72.184 124.888 72.488 124.28 72.648C123.704 72.776 123.032 72.664 122.264 72.312C121.272 71.768 120.312 71.384 119.384 71.16C118.488 70.936 117.608 70.824 116.744 70.824C115.048 70.824 113.608 71.208 112.424 71.976C111.24 72.744 110.344 73.896 109.736 75.432C109.16 76.968 108.872 78.872 108.872 81.144V84.264H108.2C108.488 82.728 109.016 81.432 109.784 80.376C110.584 79.288 111.592 78.456 112.808 77.88C114.024 77.304 115.368 77.016 116.84 77.016C118.76 77.016 120.456 77.496 121.928 78.456C123.432 79.384 124.616 80.68 125.48 82.344C126.344 83.976 126.776 85.848 126.776 87.96C126.776 90.2 126.296 92.2 125.336 93.96C124.376 95.688 123.032 97.048 121.304 98.04C119.608 99.032 117.624 99.528 115.352 99.528ZM114.968 93.72C115.96 93.72 116.824 93.496 117.56 93.048C118.328 92.6 118.904 91.96 119.288 91.128C119.704 90.296 119.912 89.336 119.912 88.248C119.912 87.16 119.704 86.216 119.288 85.416C118.904 84.584 118.328 83.944 117.56 83.496C116.824 83.016 115.96 82.776 114.968 82.776C113.976 82.776 113.096 83.016 112.328 83.496C111.592 83.944 111.016 84.584 110.6 85.416C110.184 86.216 109.976 87.16 109.976 88.248C109.976 89.336 110.184 90.296 110.6 91.128C111.016 91.96 111.592 92.6 112.328 93.048C113.096 93.496 113.976 93.72 114.968 93.72ZM142.838 99.528C138.742 99.528 135.606 98.008 133.43 94.968C131.286 91.896 130.214 87.56 130.214 81.96C130.214 78.216 130.694 75.064 131.654 72.504C132.646 69.912 134.07 67.96 135.926 66.648C137.814 65.304 140.118 64.632 142.838 64.632C146.966 64.632 150.102 66.12 152.246 69.096C154.39 72.04 155.462 76.328 155.462 81.96C155.462 85.704 154.966 88.888 153.974 91.512C153.014 94.104 151.606 96.088 149.75 97.464C147.894 98.84 145.59 99.528 142.838 99.528ZM142.838 93.48C144.694 93.48 146.07 92.568 146.966 90.744C147.862 88.888 148.31 85.96 148.31 81.96C148.31 77.96 147.862 75.08 146.966 73.32C146.07 71.56 144.694 70.68 142.838 70.68C140.982 70.68 139.606 71.56 138.71 73.32C137.814 75.08 137.366 77.96 137.366 81.96C137.366 85.96 137.814 88.888 138.71 90.744C139.606 92.568 140.982 93.48 142.838 93.48Z" fill="#0D6EFD"/>
</svg>
